<svg xmlns="http://www.w3.org/2000/svg" version="1.1" xmlns:xlink="http://www.w3.org/1999/xlink" xmlns:svgjs="http://svgjs.com/svgjs" width="1366" height="768" preserveAspectRatio="none" viewBox="0 0 1366 768"><g mask="url(&quot;#SvgjsMask1018&quot;)" fill="none"><rect width="1366" height="768" x="0" y="0" fill="#0e2a47"></rect><path d="M-82.78 536.75L-82.78 536.75" stroke="#132e65" stroke-width="1.5"></path><path d="M-82.78 536.75L75 528.8" stroke="#132e65" stroke-width="1.5"></path><path d="M-82.78 536.75L-69.68 711.89" stroke="#132e65" stroke-width="1.5"></path><path d="M-82.78 536.75L66.8 660.46" stroke="#132e65" stroke-width="1.5"></path><path d="M-82.78 536.75L207.07 529.56" stroke="#132e65" stroke-width="1.5"></path><path d="M-82.78 536.75L42.62 838.4" stroke="#132e65" stroke-width="1.5"></path><path d="M-82.78 536.75L224.9 668.25" stroke="#132e65" stroke-width="1.5"></path><path d="M-69.68 711.89L-69.68 711.89" stroke="#132e65" stroke-width="1.5"></path><path d="M-69.68 711.89L66.8 660.46" stroke="#132e65" stroke-width="1.5"></path><path d="M-69.68 711.89L42.62 838.4" stroke="#132e65" stroke-width="1.5"></path><path d="M-69.68 711.89L75 528.8" stroke="#132e65" stroke-width="1.5"></path><path d="M-69.68 711.89L-92.54 961.68" stroke="#132e65" stroke-width="1.5"></path><path d="M-69.68 711.89L47.08 969.92" stroke="#132e65" stroke-width="1.5"></path><path d="M-92.54 961.68L-92.54 961.68" stroke="#132e65" stroke-width="1.5"></path><path d="M-92.54 961.68L47.08 969.92" stroke="#132e65" stroke-width="1.5"></path><path d="M-92.54 961.68L42.62 838.4" stroke="#132e65" stroke-width="1.5"></path><path d="M75 528.8L75 528.8" stroke="#132e65" stroke-width="1.5"></path><path d="M75 528.8L66.8 660.46" stroke="#132e65" stroke-width="1.5"></path><path d="M75 528.8L207.07 529.56" stroke="#132e65" stroke-width="1.5"></path><path d="M75 528.8L224.9 668.25" stroke="#132e65" stroke-width="1.5"></path><path d="M66.8 660.46L66.8 660.46" stroke="#132e65" stroke-width="1.5"></path><path d="M66.8 660.46L224.9 668.25" stroke="#132e65" stroke-width="1.5"></path><path d="M66.8 660.46L42.62 838.4" stroke="#132e65" stroke-width="1.5"></path><path d="M66.8 660.46L207.07 529.56" stroke="#132e65" stroke-width="1.5"></path><path d="M42.62 838.4L42.62 838.4" stroke="#132e65" stroke-width="1.5"></path><path d="M42.62 838.4L47.08 969.92" stroke="#132e65" stroke-width="1.5"></path><path d="M42.62 838.4L234.79 840.83" stroke="#132e65" stroke-width="1.5"></path><path d="M42.62 838.4L218.55 963.44" stroke="#132e65" stroke-width="1.5"></path><path d="M47.08 969.92L47.08 969.92" stroke="#132e65" stroke-width="1.5"></path><path d="M207.07 529.56L207.07 529.56" stroke="#132e65" stroke-width="1.5"></path><path d="M207.07 529.56L224.9 668.25" stroke="#132e65" stroke-width="1.5"></path><path d="M224.9 668.25L224.9 668.25" stroke="#132e65" stroke-width="1.5"></path><path d="M224.9 668.25L366.1 646.44" stroke="#132e65" stroke-width="1.5"></path><path d="M224.9 668.25L234.79 840.83" stroke="#132e65" stroke-width="1.5"></path><path d="M234.79 840.83L234.79 840.83" stroke="#132e65" stroke-width="1.5"></path><path d="M234.79 840.83L218.55 963.44" stroke="#132e65" stroke-width="1.5"></path><path d="M234.79 840.83L383.53 952.05" stroke="#132e65" stroke-width="1.5"></path><path d="M234.79 840.83L47.08 969.92" stroke="#132e65" stroke-width="1.5"></path><path d="M218.55 963.44L218.55 963.44" stroke="#132e65" stroke-width="1.5"></path><path d="M218.55 963.44L383.53 952.05" stroke="#132e65" stroke-width="1.5"></path><path d="M218.55 963.44L47.08 969.92" stroke="#132e65" stroke-width="1.5"></path><path d="M410.75 488.61L410.75 488.61" stroke="#132e65" stroke-width="1.5"></path><path d="M410.75 488.61L494.61 400.73" stroke="#132e65" stroke-width="1.5"></path><path d="M410.75 488.61L555.88 541.92" stroke="#132e65" stroke-width="1.5"></path><path d="M410.75 488.61L366.1 646.44" stroke="#132e65" stroke-width="1.5"></path><path d="M410.75 488.61L207.07 529.56" stroke="#132e65" stroke-width="1.5"></path><path d="M410.75 488.61L530.81 678.99" stroke="#132e65" stroke-width="1.5"></path><path d="M410.75 488.61L642.59 374.76" stroke="#132e65" stroke-width="1.5"></path><path d="M366.1 646.44L366.1 646.44" stroke="#132e65" stroke-width="1.5"></path><path d="M383.53 952.05L383.53 952.05" stroke="#132e65" stroke-width="1.5"></path><path d="M383.53 952.05L550.26 995.88" stroke="#132e65" stroke-width="1.5"></path><path d="M494.61 400.73L494.61 400.73" stroke="#132e65" stroke-width="1.5"></path><path d="M494.61 400.73L642.59 374.76" stroke="#132e65" stroke-width="1.5"></path><path d="M494.61 400.73L555.88 541.92" stroke="#132e65" stroke-width="1.5"></path><path d="M494.61 400.73L671 504.81" stroke="#132e65" stroke-width="1.5"></path><path d="M555.88 541.92L555.88 541.92" stroke="#132e65" stroke-width="1.5"></path><path d="M555.88 541.92L671 504.81" stroke="#132e65" stroke-width="1.5"></path><path d="M555.88 541.92L530.81 678.99" stroke="#132e65" stroke-width="1.5"></path><path d="M555.88 541.92L642.59 374.76" stroke="#132e65" stroke-width="1.5"></path><path d="M555.88 541.92L366.1 646.44" stroke="#132e65" stroke-width="1.5"></path><path d="M530.81 678.99L530.81 678.99" stroke="#132e65" stroke-width="1.5"></path><path d="M530.81 678.99L529.92 793.96" stroke="#132e65" stroke-width="1.5"></path><path d="M529.92 793.96L529.92 793.96" stroke="#132e65" stroke-width="1.5"></path><path d="M529.92 793.96L694.18 820.14" stroke="#132e65" stroke-width="1.5"></path><path d="M550.26 995.88L550.26 995.88" stroke="#132e65" stroke-width="1.5"></path><path d="M550.26 995.88L649.87 1006.66" stroke="#132e65" stroke-width="1.5"></path><path d="M550.26 995.88L529.92 793.96" stroke="#132e65" stroke-width="1.5"></path><path d="M550.26 995.88L694.18 820.14" stroke="#132e65" stroke-width="1.5"></path><path d="M642.59 374.76L642.59 374.76" stroke="#132e65" stroke-width="1.5"></path><path d="M642.59 374.76L671 504.81" stroke="#132e65" stroke-width="1.5"></path><path d="M642.59 374.76L806.86 533.04" stroke="#132e65" stroke-width="1.5"></path><path d="M671 504.81L671 504.81" stroke="#132e65" stroke-width="1.5"></path><path d="M671 504.81L806.86 533.04" stroke="#132e65" stroke-width="1.5"></path><path d="M694.18 820.14L694.18 820.14" stroke="#132e65" stroke-width="1.5"></path><path d="M694.18 820.14L788.02 806.87" stroke="#132e65" stroke-width="1.5"></path><path d="M694.18 820.14L838.06 698.75" stroke="#132e65" stroke-width="1.5"></path><path d="M694.18 820.14L649.87 1006.66" stroke="#132e65" stroke-width="1.5"></path><path d="M694.18 820.14L815.22 989.78" stroke="#132e65" stroke-width="1.5"></path><path d="M649.87 1006.66L649.87 1006.66" stroke="#132e65" stroke-width="1.5"></path><path d="M649.87 1006.66L815.22 989.78" stroke="#132e65" stroke-width="1.5"></path><path d="M649.87 1006.66L788.02 806.87" stroke="#132e65" stroke-width="1.5"></path><path d="M830.01 97.81L830.01 97.81" stroke="#132e65" stroke-width="1.5"></path><path d="M830.01 97.81L944.76 78.86" stroke="#132e65" stroke-width="1.5"></path><path d="M830.01 97.81L859.59 256.98" stroke="#132e65" stroke-width="1.5"></path><path d="M830.01 97.81L950.63 228.32" stroke="#132e65" stroke-width="1.5"></path><path d="M830.01 97.81L954.74 -68.61" stroke="#132e65" stroke-width="1.5"></path><path d="M859.59 256.98L859.59 256.98" stroke="#132e65" stroke-width="1.5"></path><path d="M859.59 256.98L950.63 228.32" stroke="#132e65" stroke-width="1.5"></path><path d="M859.59 256.98L1001.69 351.39" stroke="#132e65" stroke-width="1.5"></path><path d="M859.59 256.98L944.76 78.86" stroke="#132e65" stroke-width="1.5"></path><path d="M859.59 256.98L1099.43 243.57" stroke="#132e65" stroke-width="1.5"></path><path d="M806.86 533.04L806.86 533.04" stroke="#132e65" stroke-width="1.5"></path><path d="M806.86 533.04L944.02 555.48" stroke="#132e65" stroke-width="1.5"></path><path d="M806.86 533.04L838.06 698.75" stroke="#132e65" stroke-width="1.5"></path><path d="M806.86 533.04L983.14 682.53" stroke="#132e65" stroke-width="1.5"></path><path d="M806.86 533.04L555.88 541.92" stroke="#132e65" stroke-width="1.5"></path><path d="M838.06 698.75L838.06 698.75" stroke="#132e65" stroke-width="1.5"></path><path d="M838.06 698.75L788.02 806.87" stroke="#132e65" stroke-width="1.5"></path><path d="M838.06 698.75L983.14 682.53" stroke="#132e65" stroke-width="1.5"></path><path d="M838.06 698.75L944.02 555.48" stroke="#132e65" stroke-width="1.5"></path><path d="M838.06 698.75L948.16 849.63" stroke="#132e65" stroke-width="1.5"></path><path d="M788.02 806.87L788.02 806.87" stroke="#132e65" stroke-width="1.5"></path><path d="M788.02 806.87L948.16 849.63" stroke="#132e65" stroke-width="1.5"></path><path d="M788.02 806.87L815.22 989.78" stroke="#132e65" stroke-width="1.5"></path><path d="M815.22 989.78L815.22 989.78" stroke="#132e65" stroke-width="1.5"></path><path d="M815.22 989.78L992.52 1001.22" stroke="#132e65" stroke-width="1.5"></path><path d="M815.22 989.78L948.16 849.63" stroke="#132e65" stroke-width="1.5"></path><path d="M954.74 -68.61L954.74 -68.61" stroke="#132e65" stroke-width="1.5"></path><path d="M954.74 -68.61L944.76 78.86" stroke="#132e65" stroke-width="1.5"></path><path d="M954.74 -68.61L1153.06 -82.88" stroke="#132e65" stroke-width="1.5"></path><path d="M954.74 -68.61L1118.96 111.86" stroke="#132e65" stroke-width="1.5"></path><path d="M954.74 -68.61L950.63 228.32" stroke="#132e65" stroke-width="1.5"></path><path d="M954.74 -68.61L1243.23 64.25" stroke="#132e65" stroke-width="1.5"></path><path d="M944.76 78.86L944.76 78.86" stroke="#132e65" stroke-width="1.5"></path><path d="M944.76 78.86L950.63 228.32" stroke="#132e65" stroke-width="1.5"></path><path d="M950.63 228.32L950.63 228.32" stroke="#132e65" stroke-width="1.5"></path><path d="M950.63 228.32L1001.69 351.39" stroke="#132e65" stroke-width="1.5"></path><path d="M950.63 228.32L1099.43 243.57" stroke="#132e65" stroke-width="1.5"></path><path d="M950.63 228.32L1118.96 111.86" stroke="#132e65" stroke-width="1.5"></path><path d="M1001.69 351.39L1001.69 351.39" stroke="#132e65" stroke-width="1.5"></path><path d="M1001.69 351.39L1089.72 381.38" stroke="#132e65" stroke-width="1.5"></path><path d="M1001.69 351.39L1099.43 243.57" stroke="#132e65" stroke-width="1.5"></path><path d="M944.02 555.48L944.02 555.48" stroke="#132e65" stroke-width="1.5"></path><path d="M944.02 555.48L983.14 682.53" stroke="#132e65" stroke-width="1.5"></path><path d="M944.02 555.48L1109.25 554.67" stroke="#132e65" stroke-width="1.5"></path><path d="M944.02 555.48L1094.61 704.71" stroke="#132e65" stroke-width="1.5"></path><path d="M944.02 555.48L1001.69 351.39" stroke="#132e65" stroke-width="1.5"></path><path d="M983.14 682.53L983.14 682.53" stroke="#132e65" stroke-width="1.5"></path><path d="M983.14 682.53L1094.61 704.71" stroke="#132e65" stroke-width="1.5"></path><path d="M948.16 849.63L948.16 849.63" stroke="#132e65" stroke-width="1.5"></path><path d="M948.16 849.63L992.52 1001.22" stroke="#132e65" stroke-width="1.5"></path><path d="M948.16 849.63L1108.94 841.07" stroke="#132e65" stroke-width="1.5"></path><path d="M948.16 849.63L983.14 682.53" stroke="#132e65" stroke-width="1.5"></path><path d="M992.52 1001.22L992.52 1001.22" stroke="#132e65" stroke-width="1.5"></path><path d="M992.52 1001.22L1093.95 986.87" stroke="#132e65" stroke-width="1.5"></path><path d="M992.52 1001.22L1108.94 841.07" stroke="#132e65" stroke-width="1.5"></path><path d="M992.52 1001.22L788.02 806.87" stroke="#132e65" stroke-width="1.5"></path><path d="M1153.06 -82.88L1153.06 -82.88" stroke="#132e65" stroke-width="1.5"></path><path d="M1153.06 -82.88L1286.8 -53.35" stroke="#132e65" stroke-width="1.5"></path><path d="M1153.06 -82.88L1243.23 64.25" stroke="#132e65" stroke-width="1.5"></path><path d="M1153.06 -82.88L1118.96 111.86" stroke="#132e65" stroke-width="1.5"></path><path d="M1118.96 111.86L1118.96 111.86" stroke="#132e65" stroke-width="1.5"></path><path d="M1118.96 111.86L1243.23 64.25" stroke="#132e65" stroke-width="1.5"></path><path d="M1118.96 111.86L1099.43 243.57" stroke="#132e65" stroke-width="1.5"></path><path d="M1099.43 243.57L1099.43 243.57" stroke="#132e65" stroke-width="1.5"></path><path d="M1099.43 243.57L1089.72 381.38" stroke="#132e65" stroke-width="1.5"></path><path d="M1099.43 243.57L1260.67 257.34" stroke="#132e65" stroke-width="1.5"></path><path d="M1099.43 243.57L1270.81 358.16" stroke="#132e65" stroke-width="1.5"></path><path d="M1089.72 381.38L1089.72 381.38" stroke="#132e65" stroke-width="1.5"></path><path d="M1089.72 381.38L1109.25 554.67" stroke="#132e65" stroke-width="1.5"></path><path d="M1089.72 381.38L1270.81 358.16" stroke="#132e65" stroke-width="1.5"></path><path d="M1089.72 381.38L950.63 228.32" stroke="#132e65" stroke-width="1.5"></path><path d="M1109.25 554.67L1109.25 554.67" stroke="#132e65" stroke-width="1.5"></path><path d="M1109.25 554.67L1094.61 704.71" stroke="#132e65" stroke-width="1.5"></path><path d="M1094.61 704.71L1094.61 704.71" stroke="#132e65" stroke-width="1.5"></path><path d="M1094.61 704.71L1108.94 841.07" stroke="#132e65" stroke-width="1.5"></path><path d="M1094.61 704.71L948.16 849.63" stroke="#132e65" stroke-width="1.5"></path><path d="M1094.61 704.71L1281.29 842.36" stroke="#132e65" stroke-width="1.5"></path><path d="M1108.94 841.07L1108.94 841.07" stroke="#132e65" stroke-width="1.5"></path><path d="M1108.94 841.07L1093.95 986.87" stroke="#132e65" stroke-width="1.5"></path><path d="M1108.94 841.07L1281.29 842.36" stroke="#132e65" stroke-width="1.5"></path><path d="M1108.94 841.07L1270.58 947.83" stroke="#132e65" stroke-width="1.5"></path><path d="M1093.95 986.87L1093.95 986.87" stroke="#132e65" stroke-width="1.5"></path><path d="M1286.8 -53.35L1286.8 -53.35" stroke="#132e65" stroke-width="1.5"></path><path d="M1286.8 -53.35L1243.23 64.25" stroke="#132e65" stroke-width="1.5"></path><path d="M1286.8 -53.35L1412.23 -107.31" stroke="#132e65" stroke-width="1.5"></path><path d="M1286.8 -53.35L1422.16 92.97" stroke="#132e65" stroke-width="1.5"></path><path d="M1243.23 64.25L1243.23 64.25" stroke="#132e65" stroke-width="1.5"></path><path d="M1243.23 64.25L1422.16 92.97" stroke="#132e65" stroke-width="1.5"></path><path d="M1243.23 64.25L1260.67 257.34" stroke="#132e65" stroke-width="1.5"></path><path d="M1243.23 64.25L1099.43 243.57" stroke="#132e65" stroke-width="1.5"></path><path d="M1260.67 257.34L1260.67 257.34" stroke="#132e65" stroke-width="1.5"></path><path d="M1260.67 257.34L1270.81 358.16" stroke="#132e65" stroke-width="1.5"></path><path d="M1260.67 257.34L1416.48 252.23" stroke="#132e65" stroke-width="1.5"></path><path d="M1260.67 257.34L1431.61 348.46" stroke="#132e65" stroke-width="1.5"></path><path d="M1270.81 358.16L1270.81 358.16" stroke="#132e65" stroke-width="1.5"></path><path d="M1270.81 358.16L1279.84 508.66" stroke="#132e65" stroke-width="1.5"></path><path d="M1270.81 358.16L1431.61 348.46" stroke="#132e65" stroke-width="1.5"></path><path d="M1270.81 358.16L1416.48 252.23" stroke="#132e65" stroke-width="1.5"></path><path d="M1279.84 508.66L1279.84 508.66" stroke="#132e65" stroke-width="1.5"></path><path d="M1279.84 508.66L1416.26 494.62" stroke="#132e65" stroke-width="1.5"></path><path d="M1279.84 508.66L1109.25 554.67" stroke="#132e65" stroke-width="1.5"></path><path d="M1279.84 508.66L1416.58 659.29" stroke="#132e65" stroke-width="1.5"></path><path d="M1279.84 508.66L1431.61 348.46" stroke="#132e65" stroke-width="1.5"></path><path d="M1281.29 842.36L1281.29 842.36" stroke="#132e65" stroke-width="1.5"></path><path d="M1281.29 842.36L1270.58 947.83" stroke="#132e65" stroke-width="1.5"></path><path d="M1281.29 842.36L1432.04 848.17" stroke="#132e65" stroke-width="1.5"></path><path d="M1281.29 842.36L1395.67 971.18" stroke="#132e65" stroke-width="1.5"></path><path d="M1270.58 947.83L1270.58 947.83" stroke="#132e65" stroke-width="1.5"></path><path d="M1270.58 947.83L1395.67 971.18" stroke="#132e65" stroke-width="1.5"></path><path d="M1412.23 -107.31L1412.23 -107.31" stroke="#132e65" stroke-width="1.5"></path><path d="M1412.23 -107.31L1593.15 -79.75" stroke="#132e65" stroke-width="1.5"></path><path d="M1422.16 92.97L1422.16 92.97" stroke="#132e65" stroke-width="1.5"></path><path d="M1422.16 92.97L1556.51 72.81" stroke="#132e65" stroke-width="1.5"></path><path d="M1422.16 92.97L1416.48 252.23" stroke="#132e65" stroke-width="1.5"></path><path d="M1416.48 252.23L1416.48 252.23" stroke="#132e65" stroke-width="1.5"></path><path d="M1416.48 252.23L1431.61 348.46" stroke="#132e65" stroke-width="1.5"></path><path d="M1416.48 252.23L1550 350.29" stroke="#132e65" stroke-width="1.5"></path><path d="M1416.48 252.23L1582.04 198.83" stroke="#132e65" stroke-width="1.5"></path><path d="M1431.61 348.46L1431.61 348.46" stroke="#132e65" stroke-width="1.5"></path><path d="M1431.61 348.46L1550 350.29" stroke="#132e65" stroke-width="1.5"></path><path d="M1431.61 348.46L1416.26 494.62" stroke="#132e65" stroke-width="1.5"></path><path d="M1416.26 494.62L1416.26 494.62" stroke="#132e65" stroke-width="1.5"></path><path d="M1416.26 494.62L1416.58 659.29" stroke="#132e65" stroke-width="1.5"></path><path d="M1416.26 494.62L1606.46 496.27" stroke="#132e65" stroke-width="1.5"></path><path d="M1416.58 659.29L1416.58 659.29" stroke="#132e65" stroke-width="1.5"></path><path d="M1416.58 659.29L1552.83 666.19" stroke="#132e65" stroke-width="1.5"></path><path d="M1416.58 659.29L1432.04 848.17" stroke="#132e65" stroke-width="1.5"></path><path d="M1432.04 848.17L1432.04 848.17" stroke="#132e65" stroke-width="1.5"></path><path d="M1432.04 848.17L1395.67 971.18" stroke="#132e65" stroke-width="1.5"></path><path d="M1432.04 848.17L1551.09 969.36" stroke="#132e65" stroke-width="1.5"></path><path d="M1432.04 848.17L1610.16 792.78" stroke="#132e65" stroke-width="1.5"></path><path d="M1432.04 848.17L1270.58 947.83" stroke="#132e65" stroke-width="1.5"></path><path d="M1395.67 971.18L1395.67 971.18" stroke="#132e65" stroke-width="1.5"></path><path d="M1395.67 971.18L1551.09 969.36" stroke="#132e65" stroke-width="1.5"></path><path d="M1593.15 -79.75L1593.15 -79.75" stroke="#132e65" stroke-width="1.5"></path><path d="M1593.15 -79.75L1556.51 72.81" stroke="#132e65" stroke-width="1.5"></path><path d="M1593.15 -79.75L1422.16 92.97" stroke="#132e65" stroke-width="1.5"></path><path d="M1593.15 -79.75L1582.04 198.83" stroke="#132e65" stroke-width="1.5"></path><path d="M1556.51 72.81L1556.51 72.81" stroke="#132e65" stroke-width="1.5"></path><path d="M1556.51 72.81L1582.04 198.83" stroke="#132e65" stroke-width="1.5"></path><path d="M1582.04 198.83L1582.04 198.83" stroke="#132e65" stroke-width="1.5"></path><path d="M1582.04 198.83L1550 350.29" stroke="#132e65" stroke-width="1.5"></path><path d="M1550 350.29L1550 350.29" stroke="#132e65" stroke-width="1.5"></path><path d="M1550 350.29L1606.46 496.27" stroke="#132e65" stroke-width="1.5"></path><path d="M1550 350.29L1416.26 494.62" stroke="#132e65" stroke-width="1.5"></path><path d="M1550 350.29L1556.51 72.81" stroke="#132e65" stroke-width="1.5"></path><path d="M1606.46 496.27L1606.46 496.27" stroke="#132e65" stroke-width="1.5"></path><path d="M1606.46 496.27L1552.83 666.19" stroke="#132e65" stroke-width="1.5"></path><path d="M1552.83 666.19L1552.83 666.19" stroke="#132e65" stroke-width="1.5"></path><path d="M1552.83 666.19L1610.16 792.78" stroke="#132e65" stroke-width="1.5"></path><path d="M1552.83 666.19L1432.04 848.17" stroke="#132e65" stroke-width="1.5"></path><path d="M1552.83 666.19L1416.26 494.62" stroke="#132e65" stroke-width="1.5"></path><path d="M1552.83 666.19L1551.09 969.36" stroke="#132e65" stroke-width="1.5"></path><path d="M1610.16 792.78L1610.16 792.78" stroke="#132e65" stroke-width="1.5"></path><path d="M1610.16 792.78L1551.09 969.36" stroke="#132e65" stroke-width="1.5"></path><path d="M1610.16 792.78L1416.58 659.29" stroke="#132e65" stroke-width="1.5"></path><path d="M1610.16 792.78L1395.67 971.18" stroke="#132e65" stroke-width="1.5"></path><path d="M1610.16 792.78L1606.46 496.27" stroke="#132e65" stroke-width="1.5"></path><path d="M1551.09 969.36L1551.09 969.36" stroke="#132e65" stroke-width="1.5"></path><path d="M1551.09 969.36L1270.58 947.83" stroke="#132e65" stroke-width="1.5"></path><circle r="5" cx="-82.78" cy="536.75" fill="#132e65"></circle><circle r="5" cx="-69.68" cy="711.89" fill="#132e65"></circle><circle r="5" cx="-92.54" cy="961.68" fill="#132e65"></circle><circle r="5" cx="75" cy="528.8" fill="#132e65"></circle><circle r="5" cx="66.8" cy="660.46" fill="#132e65"></circle><circle r="5" cx="42.62" cy="838.4" fill="#132e65"></circle><circle r="5" cx="47.08" cy="969.92" fill="#132e65"></circle><circle r="5" cx="207.07" cy="529.56" fill="#132e65"></circle><circle r="5" cx="224.9" cy="668.25" fill="#132e65"></circle><circle r="5" cx="234.79" cy="840.83" fill="#132e65"></circle><circle r="5" cx="218.55" cy="963.44" fill="#132e65"></circle><circle r="5" cx="410.75" cy="488.61" fill="#132e65"></circle><circle r="5" cx="366.1" cy="646.44" fill="#132e65"></circle><circle r="5" cx="383.53" cy="952.05" fill="#132e65"></circle><circle r="5" cx="494.61" cy="400.73" fill="#132e65"></circle><circle r="5" cx="555.88" cy="541.92" fill="#132e65"></circle><circle r="5" cx="530.81" cy="678.99" fill="#132e65"></circle><circle r="5" cx="529.92" cy="793.96" fill="#132e65"></circle><circle r="5" cx="550.26" cy="995.88" fill="#132e65"></circle><circle r="5" cx="642.59" cy="374.76" fill="#132e65"></circle><circle r="5" cx="671" cy="504.81" fill="#132e65"></circle><circle r="5" cx="694.18" cy="820.14" fill="#132e65"></circle><circle r="5" cx="649.87" cy="1006.66" fill="#132e65"></circle><circle r="5" cx="830.01" cy="97.81" fill="#132e65"></circle><circle r="5" cx="859.59" cy="256.98" fill="#132e65"></circle><circle r="5" cx="806.86" cy="533.04" fill="#132e65"></circle><circle r="5" cx="838.06" cy="698.75" fill="#132e65"></circle><circle r="5" cx="788.02" cy="806.87" fill="#132e65"></circle><circle r="5" cx="815.22" cy="989.78" fill="#132e65"></circle><circle r="5" cx="954.74" cy="-68.61" fill="#132e65"></circle><circle r="5" cx="944.76" cy="78.86" fill="#132e65"></circle><circle r="5" cx="950.63" cy="228.32" fill="#132e65"></circle><circle r="5" cx="1001.69" cy="351.39" fill="#132e65"></circle><circle r="5" cx="944.02" cy="555.48" fill="#132e65"></circle><circle r="5" cx="983.14" cy="682.53" fill="#132e65"></circle><circle r="5" cx="948.16" cy="849.63" fill="#132e65"></circle><circle r="5" cx="992.52" cy="1001.22" fill="#132e65"></circle><circle r="5" cx="1153.06" cy="-82.88" fill="#132e65"></circle><circle r="5" cx="1118.96" cy="111.86" fill="#132e65"></circle><circle r="5" cx="1099.43" cy="243.57" fill="#132e65"></circle><circle r="5" cx="1089.72" cy="381.38" fill="#132e65"></circle><circle r="5" cx="1109.25" cy="554.67" fill="#132e65"></circle><circle r="5" cx="1094.61" cy="704.71" fill="#132e65"></circle><circle r="5" cx="1108.94" cy="841.07" fill="#132e65"></circle><circle r="5" cx="1093.95" cy="986.87" fill="#132e65"></circle><circle r="5" cx="1286.8" cy="-53.35" fill="#132e65"></circle><circle r="5" cx="1243.23" cy="64.25" fill="#132e65"></circle><circle r="5" cx="1260.67" cy="257.34" fill="#132e65"></circle><circle r="5" cx="1270.81" cy="358.16" fill="#132e65"></circle><circle r="5" cx="1279.84" cy="508.66" fill="#132e65"></circle><circle r="5" cx="1281.29" cy="842.36" fill="#132e65"></circle><circle r="5" cx="1270.58" cy="947.83" fill="#132e65"></circle><circle r="5" cx="1412.23" cy="-107.31" fill="#132e65"></circle><circle r="5" cx="1422.16" cy="92.97" fill="#132e65"></circle><circle r="5" cx="1416.48" cy="252.23" fill="#132e65"></circle><circle r="5" cx="1431.61" cy="348.46" fill="#132e65"></circle><circle r="5" cx="1416.26" cy="494.62" fill="#132e65"></circle><circle r="5" cx="1416.58" cy="659.29" fill="#132e65"></circle><circle r="5" cx="1432.04" cy="848.17" fill="#132e65"></circle><circle r="5" cx="1395.67" cy="971.18" fill="#132e65"></circle><circle r="5" cx="1593.15" cy="-79.75" fill="#132e65"></circle><circle r="5" cx="1556.51" cy="72.81" fill="#132e65"></circle><circle r="5" cx="1582.04" cy="198.83" fill="#132e65"></circle><circle r="5" cx="1550" cy="350.29" fill="#132e65"></circle><circle r="5" cx="1606.46" cy="496.27" fill="#132e65"></circle><circle r="5" cx="1552.83" cy="666.19" fill="#132e65"></circle><circle r="5" cx="1610.16" cy="792.78" fill="#132e65"></circle><circle r="5" cx="1551.09" cy="969.36" fill="#132e65"></circle><path d="M100.45 815.29L100.45 815.29" stroke="hsl(228.5, 77.2%, 51.5%)" stroke-width="1.5"></path><path d="M100.45 815.29L189.49 829" stroke="hsl(228.5, 77.2%, 51.5%)" stroke-width="1.5"></path><path d="M552.85 1011.63L552.85 1011.63" stroke="hsl(228.5, 77.2%, 51.5%)" stroke-width="1.5"></path><path d="M552.85 1011.63L683.46 944.14" stroke="hsl(228.5, 77.2%, 51.5%)" stroke-width="1.5"></path><path d="M552.85 1011.63L390.48 946.9" stroke="hsl(228.5, 77.2%, 51.5%)" stroke-width="1.5"></path><path d="M552.85 1011.63L648.58 845.43" stroke="hsl(228.5, 77.2%, 51.5%)" stroke-width="1.5"></path><path d="M552.85 1011.63L547.34 792.65" stroke="hsl(228.5, 77.2%, 51.5%)" stroke-width="1.5"></path><path d="M552.85 1011.63L398.58 842.64" stroke="hsl(228.5, 77.2%, 51.5%)" stroke-width="1.5"></path><path d="M683.43 637.91L683.43 637.91" stroke="hsl(228.5, 77.2%, 51.5%)" stroke-width="1.5"></path><path d="M683.43 637.91L524.24 689.98" stroke="hsl(228.5, 77.2%, 51.5%)" stroke-width="1.5"></path><path d="M830.44 501.64L830.44 501.64" stroke="hsl(228.5, 77.2%, 51.5%)" stroke-width="1.5"></path><path d="M830.44 501.64L951.82 540.67" stroke="hsl(228.5, 77.2%, 51.5%)" stroke-width="1.5"></path><path d="M830.44 501.64L683.43 637.91" stroke="hsl(228.5, 77.2%, 51.5%)" stroke-width="1.5"></path><path d="M830.44 501.64L961.56 345.17" stroke="hsl(228.5, 77.2%, 51.5%)" stroke-width="1.5"></path><path d="M830.44 501.64L1004.13 688.5" stroke="hsl(228.5, 77.2%, 51.5%)" stroke-width="1.5"></path><path d="M830.44 501.64L527.77 561.73" stroke="hsl(228.5, 77.2%, 51.5%)" stroke-width="1.5"></path><path d="M825.26 982.99L825.26 982.99" stroke="hsl(228.5, 77.2%, 51.5%)" stroke-width="1.5"></path><path d="M825.26 982.99L944.47 1009.28" stroke="hsl(228.5, 77.2%, 51.5%)" stroke-width="1.5"></path><path d="M825.26 982.99L830.22 843.39" stroke="hsl(228.5, 77.2%, 51.5%)" stroke-width="1.5"></path><path d="M940.46 826.57L940.46 826.57" stroke="hsl(228.5, 77.2%, 51.5%)" stroke-width="1.5"></path><path d="M940.46 826.57L830.22 843.39" stroke="hsl(228.5, 77.2%, 51.5%)" stroke-width="1.5"></path><path d="M940.46 826.57L1004.13 688.5" stroke="hsl(228.5, 77.2%, 51.5%)" stroke-width="1.5"></path><path d="M940.46 826.57L944.47 1009.28" stroke="hsl(228.5, 77.2%, 51.5%)" stroke-width="1.5"></path><path d="M940.46 826.57L825.26 982.99" stroke="hsl(228.5, 77.2%, 51.5%)" stroke-width="1.5"></path><path d="M1289.9 -96.02L1289.9 -96.02" stroke="hsl(228.5, 77.2%, 51.5%)" stroke-width="1.5"></path><path d="M1289.9 -96.02L1257.12 43.7" stroke="hsl(228.5, 77.2%, 51.5%)" stroke-width="1.5"></path><path d="M1289.9 -96.02L1448.79 -77.05" stroke="hsl(228.5, 77.2%, 51.5%)" stroke-width="1.5"></path><path d="M1289.9 -96.02L1095.33 -63.65" stroke="hsl(228.5, 77.2%, 51.5%)" stroke-width="1.5"></path><path d="M1289.9 -96.02L1539.3 -97.05" stroke="hsl(228.5, 77.2%, 51.5%)" stroke-width="1.5"></path><path d="M1289.9 -96.02L1091.35 87.94" stroke="hsl(228.5, 77.2%, 51.5%)" stroke-width="1.5"></path><path d="M1241.44 539.25L1241.44 539.25" stroke="hsl(228.5, 77.2%, 51.5%)" stroke-width="1.5"></path><path d="M1241.44 539.25L1157.52 503.42" stroke="hsl(228.5, 77.2%, 51.5%)" stroke-width="1.5"></path><path d="M1241.44 539.25L1389.05 532.99" stroke="hsl(228.5, 77.2%, 51.5%)" stroke-width="1.5"></path><path d="M1239.94 940.81L1239.94 940.81" stroke="hsl(228.5, 77.2%, 51.5%)" stroke-width="1.5"></path><path d="M1239.94 940.81L1291.16 832.06" stroke="hsl(228.5, 77.2%, 51.5%)" stroke-width="1.5"></path><path d="M1239.94 940.81L1126.75 997.16" stroke="hsl(228.5, 77.2%, 51.5%)" stroke-width="1.5"></path><path d="M1239.94 940.81L1391.4 987.38" stroke="hsl(228.5, 77.2%, 51.5%)" stroke-width="1.5"></path><path d="M1452.22 670.16L1452.22 670.16" stroke="hsl(228.5, 77.2%, 51.5%)" stroke-width="1.5"></path><path d="M1452.22 670.16L1553.6 640.86" stroke="hsl(228.5, 77.2%, 51.5%)" stroke-width="1.5"></path><path d="M1452.22 670.16L1462.12 815.7" stroke="hsl(228.5, 77.2%, 51.5%)" stroke-width="1.5"></path><path d="M1452.22 670.16L1305.88 687.16" stroke="hsl(228.5, 77.2%, 51.5%)" stroke-width="1.5"></path><path d="M1452.22 670.16L1389.05 532.99" stroke="hsl(228.5, 77.2%, 51.5%)" stroke-width="1.5"></path><path d="M1452.22 670.16L1599.63 814.54" stroke="hsl(228.5, 77.2%, 51.5%)" stroke-width="1.5"></path><path d="M1452.22 670.16L1591.97 517.46" stroke="hsl(228.5, 77.2%, 51.5%)" stroke-width="1.5"></path><path d="M1553.6 640.86L1553.6 640.86" stroke="hsl(228.5, 77.2%, 51.5%)" stroke-width="1.5"></path><path d="M1553.6 640.86L1591.97 517.46" stroke="hsl(228.5, 77.2%, 51.5%)" stroke-width="1.5"></path><path d="M1553.6 640.86L1599.63 814.54" stroke="hsl(228.5, 77.2%, 51.5%)" stroke-width="1.5"></path><path d="M1553.6 640.86L1389.05 532.99" stroke="hsl(228.5, 77.2%, 51.5%)" stroke-width="1.5"></path><path d="M1553.6 640.86L1462.12 815.7" stroke="hsl(228.5, 77.2%, 51.5%)" stroke-width="1.5"></path><path d="M-72.77 657.03L-72.77 657.03" stroke="hsl(228.5, 77.2%, 51.5%)" stroke-width="1.5"></path><path d="M-72.77 657.03L89.26 696.38" stroke="hsl(228.5, 77.2%, 51.5%)" stroke-width="1.5"></path><path d="M-72.77 657.03L-97.15 860.52" stroke="hsl(228.5, 77.2%, 51.5%)" stroke-width="1.5"></path><path d="M-72.77 657.03L100.45 815.29" stroke="hsl(228.5, 77.2%, 51.5%)" stroke-width="1.5"></path><path d="M-72.77 657.03L189.49 829" stroke="hsl(228.5, 77.2%, 51.5%)" stroke-width="1.5"></path><path d="M-97.15 860.52L-97.15 860.52" stroke="hsl(228.5, 77.2%, 51.5%)" stroke-width="1.5"></path><path d="M-97.15 860.52L49.12 977.83" stroke="hsl(228.5, 77.2%, 51.5%)" stroke-width="1.5"></path><path d="M-97.15 860.52L100.45 815.29" stroke="hsl(228.5, 77.2%, 51.5%)" stroke-width="1.5"></path><path d="M-97.15 860.52L89.26 696.38" stroke="hsl(228.5, 77.2%, 51.5%)" stroke-width="1.5"></path><path d="M-97.15 860.52L189.49 829" stroke="hsl(228.5, 77.2%, 51.5%)" stroke-width="1.5"></path><path d="M-97.15 860.52L218.28 988.37" stroke="hsl(228.5, 77.2%, 51.5%)" stroke-width="1.5"></path><path d="M89.26 696.38L89.26 696.38" stroke="hsl(228.5, 77.2%, 51.5%)" stroke-width="1.5"></path><path d="M89.26 696.38L100.45 815.29" stroke="hsl(228.5, 77.2%, 51.5%)" stroke-width="1.5"></path><path d="M89.26 696.38L189.49 829" stroke="hsl(228.5, 77.2%, 51.5%)" stroke-width="1.5"></path><path d="M49.12 977.83L49.12 977.83" stroke="hsl(228.5, 77.2%, 51.5%)" stroke-width="1.5"></path><path d="M49.12 977.83L218.28 988.37" stroke="hsl(228.5, 77.2%, 51.5%)" stroke-width="1.5"></path><path d="M49.12 977.83L100.45 815.29" stroke="hsl(228.5, 77.2%, 51.5%)" stroke-width="1.5"></path><path d="M189.49 829L189.49 829" stroke="hsl(228.5, 77.2%, 51.5%)" stroke-width="1.5"></path><path d="M189.49 829L218.28 988.37" stroke="hsl(228.5, 77.2%, 51.5%)" stroke-width="1.5"></path><path d="M189.49 829L49.12 977.83" stroke="hsl(228.5, 77.2%, 51.5%)" stroke-width="1.5"></path><path d="M218.28 988.37L218.28 988.37" stroke="hsl(228.5, 77.2%, 51.5%)" stroke-width="1.5"></path><path d="M218.28 988.37L390.48 946.9" stroke="hsl(228.5, 77.2%, 51.5%)" stroke-width="1.5"></path><path d="M218.28 988.37L100.45 815.29" stroke="hsl(228.5, 77.2%, 51.5%)" stroke-width="1.5"></path><path d="M218.28 988.37L398.58 842.64" stroke="hsl(228.5, 77.2%, 51.5%)" stroke-width="1.5"></path><path d="M398.58 842.64L398.58 842.64" stroke="hsl(228.5, 77.2%, 51.5%)" stroke-width="1.5"></path><path d="M398.58 842.64L390.48 946.9" stroke="hsl(228.5, 77.2%, 51.5%)" stroke-width="1.5"></path><path d="M398.58 842.64L547.34 792.65" stroke="hsl(228.5, 77.2%, 51.5%)" stroke-width="1.5"></path><path d="M398.58 842.64L524.24 689.98" stroke="hsl(228.5, 77.2%, 51.5%)" stroke-width="1.5"></path><path d="M398.58 842.64L189.49 829" stroke="hsl(228.5, 77.2%, 51.5%)" stroke-width="1.5"></path><path d="M390.48 946.9L390.48 946.9" stroke="hsl(228.5, 77.2%, 51.5%)" stroke-width="1.5"></path><path d="M527.77 561.73L527.77 561.73" stroke="hsl(228.5, 77.2%, 51.5%)" stroke-width="1.5"></path><path d="M527.77 561.73L524.24 689.98" stroke="hsl(228.5, 77.2%, 51.5%)" stroke-width="1.5"></path><path d="M527.77 561.73L683.43 637.91" stroke="hsl(228.5, 77.2%, 51.5%)" stroke-width="1.5"></path><path d="M527.77 561.73L547.34 792.65" stroke="hsl(228.5, 77.2%, 51.5%)" stroke-width="1.5"></path><path d="M524.24 689.98L524.24 689.98" stroke="hsl(228.5, 77.2%, 51.5%)" stroke-width="1.5"></path><path d="M524.24 689.98L547.34 792.65" stroke="hsl(228.5, 77.2%, 51.5%)" stroke-width="1.5"></path><path d="M547.34 792.65L547.34 792.65" stroke="hsl(228.5, 77.2%, 51.5%)" stroke-width="1.5"></path><path d="M648.58 845.43L648.58 845.43" stroke="hsl(228.5, 77.2%, 51.5%)" stroke-width="1.5"></path><path d="M648.58 845.43L683.46 944.14" stroke="hsl(228.5, 77.2%, 51.5%)" stroke-width="1.5"></path><path d="M648.58 845.43L547.34 792.65" stroke="hsl(228.5, 77.2%, 51.5%)" stroke-width="1.5"></path><path d="M683.46 944.14L683.46 944.14" stroke="hsl(228.5, 77.2%, 51.5%)" stroke-width="1.5"></path><path d="M830.22 843.39L830.22 843.39" stroke="hsl(228.5, 77.2%, 51.5%)" stroke-width="1.5"></path><path d="M830.22 843.39L683.46 944.14" stroke="hsl(228.5, 77.2%, 51.5%)" stroke-width="1.5"></path><path d="M830.22 843.39L648.58 845.43" stroke="hsl(228.5, 77.2%, 51.5%)" stroke-width="1.5"></path><path d="M830.22 843.39L944.47 1009.28" stroke="hsl(228.5, 77.2%, 51.5%)" stroke-width="1.5"></path><path d="M961.56 345.17L961.56 345.17" stroke="hsl(228.5, 77.2%, 51.5%)" stroke-width="1.5"></path><path d="M961.56 345.17L1144.22 398.18" stroke="hsl(228.5, 77.2%, 51.5%)" stroke-width="1.5"></path><path d="M961.56 345.17L951.82 540.67" stroke="hsl(228.5, 77.2%, 51.5%)" stroke-width="1.5"></path><path d="M951.82 540.67L951.82 540.67" stroke="hsl(228.5, 77.2%, 51.5%)" stroke-width="1.5"></path><path d="M951.82 540.67L1004.13 688.5" stroke="hsl(228.5, 77.2%, 51.5%)" stroke-width="1.5"></path><path d="M951.82 540.67L1157.52 503.42" stroke="hsl(228.5, 77.2%, 51.5%)" stroke-width="1.5"></path><path d="M951.82 540.67L1144.22 398.18" stroke="hsl(228.5, 77.2%, 51.5%)" stroke-width="1.5"></path><path d="M1004.13 688.5L1004.13 688.5" stroke="hsl(228.5, 77.2%, 51.5%)" stroke-width="1.5"></path><path d="M1004.13 688.5L1143.92 698.33" stroke="hsl(228.5, 77.2%, 51.5%)" stroke-width="1.5"></path><path d="M1004.13 688.5L830.22 843.39" stroke="hsl(228.5, 77.2%, 51.5%)" stroke-width="1.5"></path><path d="M1004.13 688.5L1157.52 503.42" stroke="hsl(228.5, 77.2%, 51.5%)" stroke-width="1.5"></path><path d="M944.47 1009.28L944.47 1009.28" stroke="hsl(228.5, 77.2%, 51.5%)" stroke-width="1.5"></path><path d="M944.47 1009.28L1126.75 997.16" stroke="hsl(228.5, 77.2%, 51.5%)" stroke-width="1.5"></path><path d="M1095.33 -63.65L1095.33 -63.65" stroke="hsl(228.5, 77.2%, 51.5%)" stroke-width="1.5"></path><path d="M1095.33 -63.65L1091.35 87.94" stroke="hsl(228.5, 77.2%, 51.5%)" stroke-width="1.5"></path><path d="M1095.33 -63.65L1257.12 43.7" stroke="hsl(228.5, 77.2%, 51.5%)" stroke-width="1.5"></path><path d="M1091.35 87.94L1091.35 87.94" stroke="hsl(228.5, 77.2%, 51.5%)" stroke-width="1.5"></path><path d="M1091.35 87.94L1140.71 237.34" stroke="hsl(228.5, 77.2%, 51.5%)" stroke-width="1.5"></path><path d="M1140.71 237.34L1140.71 237.34" stroke="hsl(228.5, 77.2%, 51.5%)" stroke-width="1.5"></path><path d="M1140.71 237.34L1273.3 223.12" stroke="hsl(228.5, 77.2%, 51.5%)" stroke-width="1.5"></path><path d="M1144.22 398.18L1144.22 398.18" stroke="hsl(228.5, 77.2%, 51.5%)" stroke-width="1.5"></path><path d="M1144.22 398.18L1157.52 503.42" stroke="hsl(228.5, 77.2%, 51.5%)" stroke-width="1.5"></path><path d="M1144.22 398.18L1140.71 237.34" stroke="hsl(228.5, 77.2%, 51.5%)" stroke-width="1.5"></path><path d="M1144.22 398.18L1303.93 371.38" stroke="hsl(228.5, 77.2%, 51.5%)" stroke-width="1.5"></path><path d="M1144.22 398.18L1241.44 539.25" stroke="hsl(228.5, 77.2%, 51.5%)" stroke-width="1.5"></path><path d="M1157.52 503.42L1157.52 503.42" stroke="hsl(228.5, 77.2%, 51.5%)" stroke-width="1.5"></path><path d="M1157.52 503.42L1143.92 698.33" stroke="hsl(228.5, 77.2%, 51.5%)" stroke-width="1.5"></path><path d="M1143.92 698.33L1143.92 698.33" stroke="hsl(228.5, 77.2%, 51.5%)" stroke-width="1.5"></path><path d="M1126.75 997.16L1126.75 997.16" stroke="hsl(228.5, 77.2%, 51.5%)" stroke-width="1.5"></path><path d="M1257.12 43.7L1257.12 43.7" stroke="hsl(228.5, 77.2%, 51.5%)" stroke-width="1.5"></path><path d="M1273.3 223.12L1273.3 223.12" stroke="hsl(228.5, 77.2%, 51.5%)" stroke-width="1.5"></path><path d="M1273.3 223.12L1303.93 371.38" stroke="hsl(228.5, 77.2%, 51.5%)" stroke-width="1.5"></path><path d="M1303.93 371.38L1303.93 371.38" stroke="hsl(228.5, 77.2%, 51.5%)" stroke-width="1.5"></path><path d="M1303.93 371.38L1435.6 403.44" stroke="hsl(228.5, 77.2%, 51.5%)" stroke-width="1.5"></path><path d="M1303.93 371.38L1241.44 539.25" stroke="hsl(228.5, 77.2%, 51.5%)" stroke-width="1.5"></path><path d="M1303.93 371.38L1389.05 532.99" stroke="hsl(228.5, 77.2%, 51.5%)" stroke-width="1.5"></path><path d="M1303.93 371.38L1445.46 253.37" stroke="hsl(228.5, 77.2%, 51.5%)" stroke-width="1.5"></path><path d="M1305.88 687.16L1305.88 687.16" stroke="hsl(228.5, 77.2%, 51.5%)" stroke-width="1.5"></path><path d="M1305.88 687.16L1291.16 832.06" stroke="hsl(228.5, 77.2%, 51.5%)" stroke-width="1.5"></path><path d="M1305.88 687.16L1241.44 539.25" stroke="hsl(228.5, 77.2%, 51.5%)" stroke-width="1.5"></path><path d="M1305.88 687.16L1143.92 698.33" stroke="hsl(228.5, 77.2%, 51.5%)" stroke-width="1.5"></path><path d="M1305.88 687.16L1389.05 532.99" stroke="hsl(228.5, 77.2%, 51.5%)" stroke-width="1.5"></path><path d="M1305.88 687.16L1462.12 815.7" stroke="hsl(228.5, 77.2%, 51.5%)" stroke-width="1.5"></path><path d="M1291.16 832.06L1291.16 832.06" stroke="hsl(228.5, 77.2%, 51.5%)" stroke-width="1.5"></path><path d="M1291.16 832.06L1462.12 815.7" stroke="hsl(228.5, 77.2%, 51.5%)" stroke-width="1.5"></path><path d="M1291.16 832.06L1391.4 987.38" stroke="hsl(228.5, 77.2%, 51.5%)" stroke-width="1.5"></path><path d="M1448.79 -77.05L1448.79 -77.05" stroke="hsl(228.5, 77.2%, 51.5%)" stroke-width="1.5"></path><path d="M1448.79 -77.05L1539.3 -97.05" stroke="hsl(228.5, 77.2%, 51.5%)" stroke-width="1.5"></path><path d="M1445.46 253.37L1445.46 253.37" stroke="hsl(228.5, 77.2%, 51.5%)" stroke-width="1.5"></path><path d="M1445.46 253.37L1569.58 222.05" stroke="hsl(228.5, 77.2%, 51.5%)" stroke-width="1.5"></path><path d="M1445.46 253.37L1435.6 403.44" stroke="hsl(228.5, 77.2%, 51.5%)" stroke-width="1.5"></path><path d="M1445.46 253.37L1273.3 223.12" stroke="hsl(228.5, 77.2%, 51.5%)" stroke-width="1.5"></path><path d="M1445.46 253.37L1573.99 104.93" stroke="hsl(228.5, 77.2%, 51.5%)" stroke-width="1.5"></path><path d="M1445.46 253.37L1257.12 43.7" stroke="hsl(228.5, 77.2%, 51.5%)" stroke-width="1.5"></path><path d="M1435.6 403.44L1435.6 403.44" stroke="hsl(228.5, 77.2%, 51.5%)" stroke-width="1.5"></path><path d="M1435.6 403.44L1389.05 532.99" stroke="hsl(228.5, 77.2%, 51.5%)" stroke-width="1.5"></path><path d="M1389.05 532.99L1389.05 532.99" stroke="hsl(228.5, 77.2%, 51.5%)" stroke-width="1.5"></path><path d="M1462.12 815.7L1462.12 815.7" stroke="hsl(228.5, 77.2%, 51.5%)" stroke-width="1.5"></path><path d="M1462.12 815.7L1599.63 814.54" stroke="hsl(228.5, 77.2%, 51.5%)" stroke-width="1.5"></path><path d="M1462.12 815.7L1391.4 987.38" stroke="hsl(228.5, 77.2%, 51.5%)" stroke-width="1.5"></path><path d="M1391.4 987.38L1391.4 987.38" stroke="hsl(228.5, 77.2%, 51.5%)" stroke-width="1.5"></path><path d="M1391.4 987.38L1569.22 1008.15" stroke="hsl(228.5, 77.2%, 51.5%)" stroke-width="1.5"></path><path d="M1539.3 -97.05L1539.3 -97.05" stroke="hsl(228.5, 77.2%, 51.5%)" stroke-width="1.5"></path><path d="M1539.3 -97.05L1573.99 104.93" stroke="hsl(228.5, 77.2%, 51.5%)" stroke-width="1.5"></path><path d="M1539.3 -97.05L1257.12 43.7" stroke="hsl(228.5, 77.2%, 51.5%)" stroke-width="1.5"></path><path d="M1539.3 -97.05L1569.58 222.05" stroke="hsl(228.5, 77.2%, 51.5%)" stroke-width="1.5"></path><path d="M1573.99 104.93L1573.99 104.93" stroke="hsl(228.5, 77.2%, 51.5%)" stroke-width="1.5"></path><path d="M1573.99 104.93L1569.58 222.05" stroke="hsl(228.5, 77.2%, 51.5%)" stroke-width="1.5"></path><path d="M1573.99 104.93L1448.79 -77.05" stroke="hsl(228.5, 77.2%, 51.5%)" stroke-width="1.5"></path><path d="M1573.99 104.93L1257.12 43.7" stroke="hsl(228.5, 77.2%, 51.5%)" stroke-width="1.5"></path><path d="M1573.99 104.93L1273.3 223.12" stroke="hsl(228.5, 77.2%, 51.5%)" stroke-width="1.5"></path><path d="M1569.58 222.05L1569.58 222.05" stroke="hsl(228.5, 77.2%, 51.5%)" stroke-width="1.5"></path><path d="M1591.97 517.46L1591.97 517.46" stroke="hsl(228.5, 77.2%, 51.5%)" stroke-width="1.5"></path><path d="M1591.97 517.46L1435.6 403.44" stroke="hsl(228.5, 77.2%, 51.5%)" stroke-width="1.5"></path><path d="M1591.97 517.46L1389.05 532.99" stroke="hsl(228.5, 77.2%, 51.5%)" stroke-width="1.5"></path><path d="M1591.97 517.46L1569.58 222.05" stroke="hsl(228.5, 77.2%, 51.5%)" stroke-width="1.5"></path><path d="M1591.97 517.46L1599.63 814.54" stroke="hsl(228.5, 77.2%, 51.5%)" stroke-width="1.5"></path><path d="M1599.63 814.54L1599.63 814.54" stroke="hsl(228.5, 77.2%, 51.5%)" stroke-width="1.5"></path><path d="M1569.22 1008.15L1569.22 1008.15" stroke="hsl(228.5, 77.2%, 51.5%)" stroke-width="1.5"></path><path d="M1569.22 1008.15L1599.63 814.54" stroke="hsl(228.5, 77.2%, 51.5%)" stroke-width="1.5"></path><path d="M1569.22 1008.15L1462.12 815.7" stroke="hsl(228.5, 77.2%, 51.5%)" stroke-width="1.5"></path><path d="M1569.22 1008.15L1291.16 832.06" stroke="hsl(228.5, 77.2%, 51.5%)" stroke-width="1.5"></path><path d="M1569.22 1008.15L1239.94 940.81" stroke="hsl(228.5, 77.2%, 51.5%)" stroke-width="1.5"></path><circle r="25" cx="100.45" cy="815.29" fill="url(#SvgjsRadialGradient1019)"></circle><circle r="25" cx="552.85" cy="1011.63" fill="url(#SvgjsRadialGradient1019)"></circle><circle r="25" cx="683.43" cy="637.91" fill="url(#SvgjsRadialGradient1019)"></circle><circle r="25" cx="830.44" cy="501.64" fill="url(#SvgjsRadialGradient1019)"></circle><circle r="25" cx="825.26" cy="982.99" fill="url(#SvgjsRadialGradient1019)"></circle><circle r="25" cx="940.46" cy="826.57" fill="url(#SvgjsRadialGradient1019)"></circle><circle r="25" cx="1289.9" cy="-96.02" fill="url(#SvgjsRadialGradient1019)"></circle><circle r="25" cx="1241.44" cy="539.25" fill="url(#SvgjsRadialGradient1019)"></circle><circle r="25" cx="1239.94" cy="940.81" fill="url(#SvgjsRadialGradient1019)"></circle><circle r="25" cx="1452.22" cy="670.16" fill="url(#SvgjsRadialGradient1019)"></circle><circle r="25" cx="1553.6" cy="640.86" fill="url(#SvgjsRadialGradient1019)"></circle><circle r="5" cx="-72.77" cy="657.03" fill="#8b9ad9"></circle><circle r="5" cx="-97.15" cy="860.52" fill="#8b9ad9"></circle><circle r="5" cx="89.26" cy="696.38" fill="#8b9ad9"></circle><circle r="5" cx="49.12" cy="977.83" fill="#8b9ad9"></circle><circle r="5" cx="189.49" cy="829" fill="#8b9ad9"></circle><circle r="5" cx="218.28" cy="988.37" fill="#8b9ad9"></circle><circle r="5" cx="398.58" cy="842.64" fill="#8b9ad9"></circle><circle r="5" cx="390.48" cy="946.9" fill="#8b9ad9"></circle><circle r="5" cx="527.77" cy="561.73" fill="#8b9ad9"></circle><circle r="5" cx="524.24" cy="689.98" fill="#8b9ad9"></circle><circle r="5" cx="547.34" cy="792.65" fill="#8b9ad9"></circle><circle r="5" cx="648.58" cy="845.43" fill="#8b9ad9"></circle><circle r="5" cx="683.46" cy="944.14" fill="#8b9ad9"></circle><circle r="5" cx="830.22" cy="843.39" fill="#8b9ad9"></circle><circle r="5" cx="961.56" cy="345.17" fill="#8b9ad9"></circle><circle r="5" cx="951.82" cy="540.67" fill="#8b9ad9"></circle><circle r="5" cx="1004.13" cy="688.5" fill="#8b9ad9"></circle><circle r="5" cx="944.47" cy="1009.28" fill="#8b9ad9"></circle><circle r="5" cx="1095.33" cy="-63.65" fill="#8b9ad9"></circle><circle r="5" cx="1091.35" cy="87.94" fill="#8b9ad9"></circle><circle r="5" cx="1140.71" cy="237.34" fill="#8b9ad9"></circle><circle r="5" cx="1144.22" cy="398.18" fill="#8b9ad9"></circle><circle r="5" cx="1157.52" cy="503.42" fill="#8b9ad9"></circle><circle r="5" cx="1143.92" cy="698.33" fill="#8b9ad9"></circle><circle r="5" cx="1126.75" cy="997.16" fill="#8b9ad9"></circle><circle r="5" cx="1257.12" cy="43.7" fill="#8b9ad9"></circle><circle r="5" cx="1273.3" cy="223.12" fill="#8b9ad9"></circle><circle r="5" cx="1303.93" cy="371.38" fill="#8b9ad9"></circle><circle r="5" cx="1305.88" cy="687.16" fill="#8b9ad9"></circle><circle r="5" cx="1291.16" cy="832.06" fill="#8b9ad9"></circle><circle r="5" cx="1448.79" cy="-77.05" fill="#8b9ad9"></circle><circle r="5" cx="1445.46" cy="253.37" fill="#8b9ad9"></circle><circle r="5" cx="1435.6" cy="403.44" fill="#8b9ad9"></circle><circle r="5" cx="1389.05" cy="532.99" fill="#8b9ad9"></circle><circle r="5" cx="1462.12" cy="815.7" fill="#8b9ad9"></circle><circle r="5" cx="1391.4" cy="987.38" fill="#8b9ad9"></circle><circle r="5" cx="1539.3" cy="-97.05" fill="#8b9ad9"></circle><circle r="5" cx="1573.99" cy="104.93" fill="#8b9ad9"></circle><circle r="5" cx="1569.58" cy="222.05" fill="#8b9ad9"></circle><circle r="5" cx="1591.97" cy="517.46" fill="#8b9ad9"></circle><circle r="5" cx="1599.63" cy="814.54" fill="#8b9ad9"></circle><circle r="5" cx="1569.22" cy="1008.15" fill="#8b9ad9"></circle></g><defs><mask id="SvgjsMask1018"><rect width="1366" height="768" fill="#ffffff"></rect></mask><radialGradient id="SvgjsRadialGradient1019"><stop stop-color="#ffffff" offset="0.1"></stop><stop stop-color="#1735b3" offset="0.2"></stop><stop stop-color="rgba(23, 53, 179, 0)" offset="1"></stop></radialGradient></defs></svg>